HIERARCHY
ROOT Hips
{
	OFFSET -3.958830 18.904000 13.208200
	CHANNELS 6 Xposition Yposition Zposition Zrotation Yrotation Xrotation 
	JOINT LHipJoint
	{
		OFFSET 0.000000 0.000000 0.000000
		CHANNELS 3 Zrotation Yrotation Xrotation
		JOINT LeftUpLeg
		{
			OFFSET 1.800000 -1.400000 0.085000
			CHANNELS 3 Zrotation Yrotation Xrotation
			JOINT LeftLeg
			{
				OFFSET 2.215000 -6.000000 0.000000
				CHANNELS 3 Zrotation Yrotation Xrotation
				JOINT LeftFoot
				{
					OFFSET 2.500000 -6.900000 0.000000
					CHANNELS 3 Zrotation Yrotation Xrotation
					JOINT LeftToeBase
					{
						OFFSET 0.200000 -0.500000 1.950000
						CHANNELS 3 Zrotation Yrotation Xrotation
						End Site
						{
							OFFSET 0.000000 0.000000 0.000000
						}
					}
				}
			}
		}
	}
	JOINT RHipJoint
	{
		OFFSET 0.000000 0.000000 0.000000
		CHANNELS 3 Zrotation Yrotation Xrotation
		JOINT RightUpLeg
		{
			OFFSET -1.800000 -1.400000 0.085000
			CHANNELS 3 Zrotation Yrotation Xrotation
			JOINT RightLeg
			{
				OFFSET -2.215000 -6.000000 0.000000
				CHANNELS 3 Zrotation Yrotation Xrotation
				JOINT RightFoot
				{
					OFFSET -2.500000 -6.900000 0.000000
					CHANNELS 3 Zrotation Yrotation Xrotation
					JOINT RightToeBase
					{
						OFFSET -0.200000 -0.500000 1.950000
						CHANNELS 3 Zrotation Yrotation Xrotation
						End Site
						{
							OFFSET 0.000000 0.000000 0.000000
						}
					}
				}
			}
		}
	}
	JOINT LowerBack
	{
		OFFSET 0.000000 0.000000 0.000000
		CHANNELS 3 Zrotation Yrotation Xrotation
		JOINT Spine
		{
			OFFSET -0.087000 1.940000 -0.288900
			CHANNELS 3 Zrotation Yrotation Xrotation
			JOINT Spine1
			{
				OFFSET 0.000000 1.950000 0.060000
				CHANNELS 3 Zrotation Yrotation Xrotation
				JOINT Neck
				{
					OFFSET 0.000000 0.000000 0.000000
					CHANNELS 3 Zrotation Yrotation Xrotation
					JOINT Neck1
					{
						OFFSET 0.000000 1.600000 0.340000
						CHANNELS 3 Zrotation Yrotation Xrotation
						JOINT Head
						{
							OFFSET 0.000000 1.667000 -0.240000
							CHANNELS 3 Zrotation Yrotation Xrotation
							End Site
							{
								OFFSET 0.000000 0.000000 0.000000
							}
						}
					}
				}
				JOINT LeftShoulder
				{
					OFFSET 0.000000 0.000000 0.000000
					CHANNELS 3 Zrotation Yrotation Xrotation
					JOINT LeftArm
					{
						OFFSET 2.700000 1.550000 -0.730000
						CHANNELS 3 Zrotation Yrotation Xrotation
						JOINT LeftForeArm
						{
							OFFSET 5.450000 0.000000 0.000000
							CHANNELS 3 Zrotation Yrotation Xrotation
							JOINT LeftHand
							{
								OFFSET 3.450000 0.000000 0.000000
								CHANNELS 3 Zrotation Yrotation Xrotation
								JOINT LeftHandIndex1
								{
									OFFSET 0.750000 0.000000 0.000000
									CHANNELS 3 Zrotation Yrotation Xrotation
									End Site
									{
										OFFSET 0.000000 0.000000 0.000000
									}
								}
							}
						}
					}
				}
				JOINT RightShoulder
				{
					OFFSET 0.000000 0.000000 0.000000
					CHANNELS 3 Zrotation Yrotation Xrotation
					JOINT RightArm
					{
						OFFSET -2.700000 1.550000 -0.730000
						CHANNELS 3 Zrotation Yrotation Xrotation
						JOINT RightForeArm
						{
							OFFSET -5.450000 0.000000 0.000000
							CHANNELS 3 Zrotation Yrotation Xrotation
							JOINT RightHand
							{
								OFFSET -3.450000 0.000000 0.000000
								CHANNELS 3 Zrotation Yrotation Xrotation
								JOINT RightHandIndex1
								{
									OFFSET -0.750000 0.000000 0.000000
									CHANNELS 3 Zrotation Yrotation Xrotation
									End Site
									{
										OFFSET 0.000000 0.000000 0.000000
									}
								}
							}
						}
					}
				}
			}
		}
	}
}
MOTION
Frames: 12
Frame Time: 0.016667
6.087310 16.775350 -1.591380 -168.356165 -82.702132 172.051079 -15.696536 14.076940 2.989449 -0.605261 -1.023634 1.167037 -4.676746 7.142246 22.290907 0.281099 5.415315 2.741832 0.401460 0.166400 0.624930 17.828642 -9.602089 3.431344 7.575502 3.948859 -32.497055 2.532089 -3.682619 17.550032 0.030729 -1.720055 3.706068 0.015590 -0.158560 0.225640 -4.128306 -4.349831 -7.505030 16.304479 -7.816482 10.856621 -3.708918 -6.676717 3.329019 3.144996 -2.955291 -8.148660 -11.621287 7.516292 41.863746 -12.411130 13.918690 -4.309680 -20.487057 -7.533392 0.631980 -51.362799 -22.370693 3.402188 -22.314863 -32.606542 5.246342 -3.589804 3.216095 0.344820 0.047260 0.204660 0.063130 13.931231 5.134753 5.110593 62.954410 -4.519782 -9.715835 10.085568 7.195278 -0.792113 2.686855 -1.276139 -0.004920 -0.146210 -0.295520 -0.236570 
5.961620 16.794580 -1.626670 -171.600633 -81.167023 175.616985 -15.726175 13.987627 3.002524 -0.740482 -1.559435 0.066893 -5.519687 7.712941 25.123055 0.331865 5.766382 2.632930 0.383730 0.133250 0.613960 17.796363 -9.652764 3.434979 7.240437 4.151545 -31.890785 3.059500 -3.819985 17.987070 0.038848 -1.834808 3.689463 0.009440 -0.130380 0.207830 -4.122867 -4.244770 -7.548256 15.605455 -6.893648 10.694526 -2.954259 -5.819807 3.215476 3.031811 -3.041865 -8.306863 -11.519284 7.574184 41.475726 -12.179220 14.033910 -3.166460 -20.843764 -7.872954 0.815838 -51.704605 -21.374980 3.163574 -22.966278 -30.797950 5.032909 -3.603756 3.198151 0.341910 0.065320 0.173280 0.071910 14.576404 6.005730 5.338554 62.225148 -4.399627 -9.359985 9.487419 6.659949 -0.767277 2.687030 -1.289504 -0.035120 -0.135850 -0.297190 -0.241820 
5.836360 16.824310 -1.661180 -174.250206 -79.334820 178.312009 -15.738537 13.888343 3.068638 -0.651894 -2.309216 -1.374412 -7.095683 8.743481 28.661539 0.430719 6.291318 2.431625 0.397920 0.157020 0.615490 17.776136 -9.698183 3.416512 6.737222 4.291163 -30.958575 3.685091 -3.973615 18.372993 0.015970 -1.933194 3.660759 0.021200 -0.148390 0.190260 -4.062939 -4.142065 -7.640126 14.672294 -5.819771 10.999961 -1.986782 -4.764381 3.089018 2.895493 -3.259387 -8.554293 -12.044697 7.791531 42.090873 -11.865850 13.780870 -3.370660 -21.241287 -8.308907 0.969210 -52.663213 -20.590396 3.053983 -22.120713 -27.717228 4.186769 -3.591893 3.166090 0.354070 0.045450 0.182680 0.073530 15.341057 7.202130 5.626945 61.397674 -4.037771 -8.887205 8.528863 5.967004 -0.691883 2.695158 -1.288021 -0.034100 -0.127940 -0.304880 -0.242320 
5.700840 16.854230 -1.692350 -176.475151 -78.109975 -179.640236 -15.741231 13.763834 3.204552 -0.292070 -3.543323 -3.477003 -8.943511 10.258586 33.558491 0.608432 7.128346 2.130548 0.405620 0.164240 0.619020 17.758367 -9.755101 3.343261 5.574642 4.218466 -29.751089 4.917958 -4.345686 18.804777 -0.019229 -2.094546 3.608900 0.018770 -0.161010 0.180540 -3.991104 -4.015709 -7.754769 13.711637 -5.019100 11.422642 -1.415969 -3.947889 2.649658 2.930074 -3.355491 -8.771573 -12.232711 8.089475 43.003330 -11.453990 13.676280 -3.262310 -22.283120 -8.595121 1.175098 -53.124744 -18.604212 2.088828 -21.479123 -25.211973 3.458700 -3.574320 3.141779 0.368520 0.025720 0.194950 0.077540 16.432265 8.150304 5.794696 60.778306 -3.722010 -8.510888 7.360661 5.332238 -0.590289 2.711957 -1.281875 -0.031160 -0.123070 -0.312670 -0.240920 
5.564730 16.874790 -1.720820 -178.668650 -77.100689 -177.591517 -15.747895 13.541096 3.431881 0.216781 -5.207113 -6.498084 -11.050643 12.394776 39.552422 0.889719 8.283588 1.731164 0.416050 0.173290 0.617110 17.747461 -9.776691 3.237298 3.910425 4.109856 -28.673657 6.846094 -4.970446 19.410687 -0.066352 -2.353393 3.519001 0.008520 -0.172670 0.185950 -3.912898 -3.835346 -7.915127 12.716366 -4.249394 11.919479 -1.134963 -3.133343 2.024883 3.066157 -3.417034 -8.921320 -12.094114 8.428774 43.554149 -10.965000 13.786670 -2.660860 -23.651288 -8.559309 1.407399 -53.501804 -15.832404 0.406907 -20.690975 -24.126804 2.876826 -3.548389 3.156893 0.366340 0.012200 0.204430 0.087950 17.640998 8.803155 5.843504 60.230318 -3.469326 -8.292498 6.616982 5.181687 -0.526960 2.731157 -1.301647 -0.010510 -0.144480 -0.327510 -0.230400 
5.442880 16.888180 -1.754100 179.189077 -75.634066 -175.549177 -15.768037 13.176687 3.787853 1.407471 -7.055349 -10.495752 -14.274715 15.872501 46.075457 1.271785 9.889531 1.204939 0.428620 0.189410 0.614890 17.751321 -9.708403 3.104829 2.587729 4.160834 -27.673797 8.071093 -5.373708 19.944796 -0.106845 -2.560914 3.444638 0.011440 -0.179080 0.185680 -3.775371 -3.606993 -8.150482 11.336580 -3.153112 12.619875 -0.593255 -1.998289 1.344811 3.011281 -3.505746 -8.885854 -11.992341 8.784309 44.076852 -10.272580 13.700770 -2.520530 -25.057047 -8.395076 1.376998 -54.003188 -13.620175 -0.670425 -18.803540 -21.363058 1.981060 -3.545680 3.138971 0.367720 0.000270 0.210420 0.093090 19.270713 9.465075 5.759963 59.188883 -2.843423 -7.774146 6.076151 4.672808 -0.454364 2.741142 -1.313212 0.001270 -0.148650 -0.332200 -0.224200 
5.327820 16.897790 -1.789300 178.641285 -74.338100 -174.927126 -15.786582 12.698438 4.229863 3.927886 -8.666131 -15.351352 -17.928560 20.570559 52.486279 1.723479 11.772625 0.635676 0.437980 0.192630 0.630550 17.779040 -9.567290 2.963333 1.682513 4.333222 -26.500182 9.308070 -5.649919 19.821009 -0.138656 -2.704660 3.391488 0.013960 -0.185030 0.185110 -3.666816 -3.265085 -8.423238 10.360970 -1.983772 13.185424 -0.109174 -0.779751 0.793609 2.968756 -3.359452 -8.776115 -11.275469 8.698816 44.565501 -10.004640 13.637460 -2.493760 -26.325593 -8.301441 1.398977 -54.582186 -11.548166 -1.679200 -16.729007 -19.032874 1.222783 -3.551477 3.103784 0.374820 -0.007260 0.215320 0.091480 20.679792 10.096006 5.551168 58.346854 -1.796094 -7.139031 5.561616 4.081256 -0.379865 2.752089 -1.324441 0.000830 -0.147890 -0.338320 -0.228230 
5.220360 16.906820 -1.822000 178.539867 -73.542200 -174.563108 -15.806625 12.145845 4.718527 7.116417 -9.619323 -20.873072 -20.971133 25.821278 58.521584 2.163713 13.651054 0.123543 0.422920 0.172850 0.629400 17.822330 -9.413842 2.800860 0.873232 4.435001 -25.154834 10.516673 -5.774313 18.855910 -0.140295 -2.795876 3.375066 0.018730 -0.162440 0.175540 -3.600929 -2.814080 -8.678690 9.637455 -0.822019 13.356161 0.262849 0.378538 0.561483 2.935028 -2.959532 -8.521466 -9.867337 8.053949 44.674272 -10.379230 13.553260 -2.110240 -27.490654 -8.427915 1.414077 -55.055781 -10.099316 -2.041863 -14.345931 -15.885245 0.555161 -3.595089 3.038682 0.370740 0.014600 0.195890 0.090980 21.910307 10.765512 5.198977 57.204939 0.003022 -6.161301 5.367172 3.548692 -0.328055 2.746472 -1.335988 -0.026020 -0.127900 -0.332270 -0.235730 
5.122990 16.907840 -1.850240 178.528592 -73.263775 -174.443772 -15.827640 11.612981 5.214794 10.179097 -10.041885 -26.519262 -22.111679 30.751832 64.994101 2.570250 15.359300 -0.310333 0.428320 0.172300 0.646600 17.864989 -9.279661 2.657551 0.075046 4.589091 -24.191393 11.608289 -6.058960 18.801919 -0.167847 -2.967189 3.314322 0.026450 -0.163430 0.183390 -3.574110 -2.338421 -8.940958 9.131095 0.081774 13.904814 -0.029110 1.404836 0.075189 3.142763 -2.213779 -8.171822 -7.644879 7.279749 44.761081 -10.863470 13.676040 -2.248780 -28.979243 -8.171008 1.407508 -54.249547 -7.879924 -3.078911 -12.883894 -14.585651 0.193578 -3.612276 3.010365 0.373450 0.026320 0.195210 0.089120 22.933538 10.773799 4.588787 56.282814 1.733989 -5.473213 5.481723 3.774928 -0.332270 2.737057 -1.355971 -0.034060 -0.131680 -0.337220 -0.246410 
5.025870 16.918840 -1.871600 178.290100 -73.037842 -174.291427 -15.855246 11.131594 5.704952 13.104688 -9.959215 -31.837003 -22.240151 35.305380 71.127063 2.940597 16.817787 -0.653067 0.455220 0.201770 0.669370 17.900602 -9.155936 2.514406 -0.615258 4.689839 -23.237928 12.389808 -6.319506 19.017740 -0.201794 -3.131006 3.251054 0.042660 -0.185370 0.188680 -3.568043 -1.933280 -9.199513 8.859688 0.878832 14.591892 -0.399521 2.412902 -0.418982 3.271121 -1.757214 -7.976076 -6.383425 6.609830 45.475818 -10.951920 13.318060 -2.215670 -30.575097 -8.044145 1.303311 -53.286600 -6.241162 -3.505928 -10.978053 -12.373902 -0.124933 -3.613063 2.999830 0.367360 0.020270 0.204210 0.089420 24.191435 11.043511 4.228513 54.851569 2.909966 -4.983683 5.977620 4.316271 -0.363158 2.731673 -1.381561 -0.018840 -0.147320 -0.354570 -0.248150 
4.920160 16.931300 -1.891770 179.084293 -72.846389 -175.322956 -15.874627 10.703202 6.162236 15.974273 -9.421891 -36.617873 -21.468957 39.179584 76.819331 3.214762 18.024000 -0.923023 0.478380 0.227830 0.695890 17.948001 -9.049610 2.368926 -0.826549 4.622739 -21.703517 12.923768 -6.418092 18.593804 -0.235630 -3.214508 3.221899 0.064120 -0.206250 0.185740 -3.582757 -1.551993 -9.428007 8.948852 1.493667 15.321668 -0.783583 3.309538 -0.863272 3.433333 -1.318452 -7.707248 -5.190373 5.918883 46.434250 -11.289420 12.907310 -3.015450 -31.673074 -7.470917 1.085743 -52.469827 -4.833598 -3.722014 -9.472429 -10.408832 -0.345453 -3.622028 2.952613 0.384170 0.008860 0.220890 0.083870 24.846789 10.811770 3.693698 53.506254 4.330167 -4.466146 6.912156 4.853827 -0.369023 2.714704 -1.373173 -0.020600 -0.133900 -0.359130 -0.260070 
4.804020 16.947360 -1.916340 179.000142 -72.939212 -175.743283 -15.906585 10.359914 6.564761 18.258824 -8.726894 -40.652184 -20.199923 42.189857 81.750483 3.444157 18.951601 -1.117869 0.509610 0.266980 0.714810 17.974622 -8.981312 2.217883 -1.190401 4.374134 -19.955609 13.292440 -6.536208 18.260541 -0.286143 -3.312537 3.175697 0.079920 -0.226420 0.205460 -3.518394 -1.262088 -9.607701 8.401983 2.116684 16.065891 -0.831291 4.114333 -1.301332 3.490406 -0.891023 -7.434521 -3.998517 5.514645 47.456934 -11.024070 12.536690 -4.001710 -32.316807 -6.571378 0.922085 -51.839376 -3.282449 -4.217926 -8.667416 -9.800582 -0.481335 -3.621264 2.941286 0.395930 -0.007790 0.251110 0.083010 25.355950 10.244140 3.057217 52.189045 5.699974 -3.991978 7.881390 5.382956 -0.348744 2.705492 -1.367716 0.003520 -0.133760 -0.360800 -0.257650 
